#N canvas 288 179 1159 901 12;
#X obj 181 345 list trim;
#X msg 384 165 args 0;
#X obj 384 190 pdcontrol;
#X obj 384 215 list trim;
#X obj 384 140 loadbang;
#X obj 121 39 inlet;
#X obj 181 370 outlet;
#X text 505 144 format message to send to your monome device... arguments
specify the osc path of the message you wouuld like to send ex) monome
grid led level set;
#X obj 121 240 list prepend;
#X obj 207 93 print addr-object-in;
#X obj 384 240 list length;
#X obj 167 287 list prepend;
#X connect 0 0 6 0;
#X connect 1 0 2 0;
#X connect 2 0 3 0;
#X connect 3 0 10 0;
#X connect 3 0 8 1;
#X connect 4 0 1 0;
#X connect 5 0 9 0;
#X connect 5 0 8 0;
#X connect 8 0 11 0;
#X connect 10 0 11 1;
#X connect 11 0 0 0;
