#N canvas 424 178 1648 902 12;
#X obj 60 56 loadbang;
#X obj 60 142 oscparse;
#X obj 60 167 list trim;
#X msg 60 85 listen 8000;
#X obj 60 114 netreceive -u -b 8000;
#X obj 581 481 loadbang;
#X obj 447 536 netsend -u -b;
#X msg 581 506 connect localhost 16929;
#X obj 447 482 list prepend send;
#X obj 447 507 list trim;
#X obj 60 197 outlet;
#X obj 795 32 inlet;
#X msg 795 68 listen \$1;
#X obj 379 147 inlet;
#X text 47 20 get data from grids;
#X text 375 120 send data to grids;
#X obj 379 275 list split;
#X obj 379 300 t b a;
#X obj 447 454 oscformat;
#X obj 523 390 list prepend set;
#X obj 523 415 list trim;
#X obj 153 74 r \$0-change-port-number;
#X obj 976 29 inlet;
#X obj 794 92 s \$0-change-input-port;
#X msg 976 65 connect localhost \$1;
#X obj 976 90 s \$0-change-output-port;
#X obj 666 446 r \$0-change-output-port;
#X obj 425 144 r monome.out;
#X obj 121 198 s monome.in;
#X obj 379 376 list;
#X obj 379 208 t b a;
#X obj 379 240 list;
#X text 482 181 how much of the message is the address?;
#X text 497 302 split address from data;
#X obj 379 178 list split 1;
#X connect 0 0 3 0;
#X connect 1 0 2 0;
#X connect 2 0 10 0;
#X connect 2 0 28 0;
#X connect 3 0 4 0;
#X connect 4 0 1 0;
#X connect 5 0 7 0;
#X connect 7 0 6 0;
#X connect 8 0 9 0;
#X connect 9 0 6 0;
#X connect 11 0 12 0;
#X connect 12 0 23 0;
#X connect 13 0 34 0;
#X connect 16 0 17 0;
#X connect 16 1 29 1;
#X connect 17 0 29 0;
#X connect 17 1 19 0;
#X connect 18 0 8 0;
#X connect 19 0 20 0;
#X connect 20 0 18 0;
#X connect 21 0 4 0;
#X connect 22 0 24 0;
#X connect 24 0 25 0;
#X connect 26 0 6 0;
#X connect 27 0 34 0;
#X connect 29 0 18 0;
#X connect 30 0 31 0;
#X connect 30 1 16 1;
#X connect 31 0 16 0;
#X connect 34 0 30 0;
#X connect 34 1 31 1;
