#N canvas 421 319 450 300 12;
#X obj 130 41 inlet;
#X obj 135 149 i;
#X obj 159 186 + 1;
#X obj 128 264 outlet;
#X obj 248 44 inlet;
#X obj 248 69 t b;
#X obj 203 127 i 0;
#X connect 0 0 1 0;
#X connect 1 0 2 0;
#X connect 1 0 3 0;
#X connect 2 0 1 1;
#X connect 4 0 5 0;
#X connect 5 0 6 0;
#X connect 6 0 1 1;
