#N canvas 165 128 1429 952 12;
#X obj 232 812 euclid;
#X obj 360 325 + 1;
#X obj 320 359 sel 0 1 2;
#X msg 320 388 length;
#X msg 340 418 hits;
#X msg 360 448 rotation;
#X obj 320 217 * 2;
#X obj 320 242 - 1;
#X obj 320 267 t b f;
#X text 372 228 compute number of held keys on row;
#X obj 231 531 list prepend;
#X obj 295 169 unpack;
#X obj 231 581 route length hits rotation;
#X obj 198 652 i 16;
#X obj 198 720 until;
#X obj 198 757 count;
#X obj 165 611 t b b;
#X text 38 732 re-compute euclid;
#X obj 197 61 inlet;
#X obj 232 1003 outlet;
#X obj 232 956 list store;
#X msg 232 867 append \$1;
#X obj 152 821 t b b;
#X msg 164 908 get 0 \$1;
#X obj 164 877 i 16;
#X obj 422 891 outlet;
#X obj 482 891 outlet;
#X obj 542 891 outlet;
#X obj 231 556 list trim;
#X obj 320 302 i 0;
#X obj 363 544 print;
#X obj 197 97 t b a a;
#X obj 219 196 swap;
#X obj 219 221 pack;
#X obj 219 246 route 1;
#X obj 265 838 * 7;
#X connect 0 1 35 0;
#X connect 1 0 29 1;
#X connect 2 0 3 0;
#X connect 2 1 4 0;
#X connect 2 2 5 0;
#X connect 3 0 10 1;
#X connect 4 0 10 1;
#X connect 5 0 10 1;
#X connect 6 0 7 0;
#X connect 7 0 8 0;
#X connect 8 0 29 0;
#X connect 8 1 1 1;
#X connect 10 0 28 0;
#X connect 10 0 30 0;
#X connect 11 1 6 0;
#X connect 12 0 0 2;
#X connect 12 0 13 1;
#X connect 12 0 24 1;
#X connect 12 0 25 0;
#X connect 12 1 0 1;
#X connect 12 1 26 0;
#X connect 12 2 0 3;
#X connect 12 2 27 0;
#X connect 13 0 14 0;
#X connect 14 0 15 0;
#X connect 15 0 0 0;
#X connect 16 0 15 1;
#X connect 16 0 22 0;
#X connect 16 1 13 0;
#X connect 18 0 31 0;
#X connect 20 0 19 0;
#X connect 21 0 20 0;
#X connect 22 0 20 1;
#X connect 22 1 24 0;
#X connect 23 0 20 0;
#X connect 24 0 23 0;
#X connect 28 0 12 0;
#X connect 29 0 1 0;
#X connect 29 0 2 0;
#X connect 31 0 16 0;
#X connect 31 2 11 0;
#X connect 31 2 32 0;
#X connect 32 0 33 0;
#X connect 32 1 33 1;
#X connect 33 0 34 0;
#X connect 34 0 10 0;
#X connect 35 0 21 0;
