#N canvas 0 96 1309 980 12;
#X obj 421 268 %;
#X obj 421 199 t f b;
#X obj 453 302 * 16;
#X obj 455 368 +;
#X obj 397 566 spigot;
#X obj 381 335 t f f;
#X obj 453 252 t b b;
#X obj 513 315 i 1;
#X obj 436 511 == 0;
#X obj 684 446 list trim;
#X obj 766 361 i 16;
#X obj 684 355 * 16;
#X obj 675 283 t b b;
#X obj 421 164 inlet;
#X obj 502 703 outlet;
#X obj 684 330 i \$2;
#X obj 453 227 v row-\$2-length;
#X obj 453 277 i \$2;
#X obj 485 418 array get \$1;
#X obj 684 393 array get \$1;
#X obj 684 421 list prepend 0 \$2;
#X obj 271 527 != 0;
#X obj 233 556 spigot;
#X obj 198 468 pack 0 \$2 15;
#X obj 353 510 pack 0 \$2 4;
#X obj 502 469 > 0;
#X obj 397 628 s monome.out;
#X obj 684 500 s monome.out;
#X obj 684 471 vanilla-monome.IO.address-message monome grid led level
row;
#X obj 397 604 vanilla-monome.IO.address-message monome grid led level
set;
#X connect 0 0 5 0;
#X connect 1 0 0 0;
#X connect 1 1 12 0;
#X connect 1 1 16 0;
#X connect 2 0 3 1;
#X connect 3 0 18 0;
#X connect 4 0 29 0;
#X connect 5 0 23 0;
#X connect 5 0 24 0;
#X connect 5 1 3 0;
#X connect 6 0 17 0;
#X connect 6 1 7 0;
#X connect 7 0 18 1;
#X connect 8 0 4 1;
#X connect 9 0 28 0;
#X connect 10 0 19 1;
#X connect 11 0 19 0;
#X connect 12 0 15 0;
#X connect 12 1 10 0;
#X connect 13 0 1 0;
#X connect 15 0 11 0;
#X connect 16 0 0 1;
#X connect 16 0 6 0;
#X connect 17 0 2 0;
#X connect 18 0 8 0;
#X connect 18 0 21 0;
#X connect 18 0 25 0;
#X connect 19 0 20 0;
#X connect 20 0 9 0;
#X connect 21 0 22 1;
#X connect 22 0 29 0;
#X connect 23 0 22 0;
#X connect 24 0 4 0;
#X connect 25 0 14 0;
#X connect 28 0 27 0;
#X connect 29 0 26 0;
