#N canvas 203 100 1517 972 12;
#X obj 696 36 r monome.grid.key.read;
#X obj 696 61 unpack 0 0 0;
#X text 796 62 state \, y \, x;
#X obj 696 146 pack 0 0 0;
#X obj 893 181 array define -yrange 0 1 sequence-state 128;
#X obj 565 183 euclidean-grid.UI.row.set sequence-state 0;
#X obj 701 105 swap;
#X obj 575 213 euclidean-grid.UI.row.set sequence-state 1;
#X obj 585 243 euclidean-grid.UI.row.set sequence-state 2;
#X obj 595 273 euclidean-grid.UI.row.set sequence-state 3;
#X obj 605 303 euclidean-grid.UI.row.set sequence-state 4;
#X obj 615 333 euclidean-grid.UI.row.set sequence-state 5;
#X obj 625 363 euclidean-grid.UI.row.set sequence-state 6;
#X obj 635 393 euclidean-grid.UI.row.set sequence-state 7;
#X obj 389 578 euclidean-grid.UI.play-sequence sequence-state 0;
#X obj 422 603 euclidean-grid.UI.play-sequence sequence-state 1;
#X obj 489 658 euclidean-grid.UI.play-sequence sequence-state 3;
#X obj 522 683 euclidean-grid.UI.play-sequence sequence-state 4;
#X obj 562 712 euclidean-grid.UI.play-sequence sequence-state 5;
#X obj 612 742 euclidean-grid.UI.play-sequence sequence-state 6;
#X obj 652 772 euclidean-grid.UI.play-sequence sequence-state 7;
#X obj 452 631 euclidean-grid.UI.play-sequence sequence-state 2;
#X obj 333 862 outlet;
#X obj 400 869 outlet;
#X obj 467 889 outlet;
#X obj 541 898 outlet;
#X obj 608 898 outlet;
#X obj 690 895 outlet;
#X obj 785 897 outlet;
#X obj 863 891 outlet;
#X obj 442 461 inlet;
#X obj 44 81 route monome;
#X obj 44 106 route grid;
#X obj 44 131 route key;
#X obj 44 181 s monome.grid.key.read;
#X obj 44 56 vanilla-monome.IO.serial-communication;
#X obj 293 298 print;
#X obj 293 250 r monome.grid.key.read;
#X connect 0 0 1 0;
#X connect 1 0 6 0;
#X connect 1 1 6 1;
#X connect 1 2 3 2;
#X connect 3 0 9 0;
#X connect 3 0 13 0;
#X connect 3 0 5 0;
#X connect 3 0 7 0;
#X connect 3 0 12 0;
#X connect 3 0 11 0;
#X connect 3 0 10 0;
#X connect 3 0 8 0;
#X connect 6 0 3 0;
#X connect 6 1 3 1;
#X connect 14 0 22 0;
#X connect 15 0 23 0;
#X connect 16 0 25 0;
#X connect 17 0 26 0;
#X connect 18 0 27 0;
#X connect 19 0 28 0;
#X connect 20 0 29 0;
#X connect 21 0 24 0;
#X connect 30 0 20 0;
#X connect 30 0 14 0;
#X connect 30 0 21 0;
#X connect 30 0 19 0;
#X connect 30 0 18 0;
#X connect 30 0 17 0;
#X connect 30 0 16 0;
#X connect 30 0 15 0;
#X connect 31 0 32 0;
#X connect 32 0 33 0;
#X connect 33 0 34 0;
#X connect 35 0 31 0;
#X connect 37 0 36 0;
