#N canvas 383 212 874 864 12;
#X obj 108 201 list length;
#X obj 108 226 expr 16 - $f1;
#X msg 140 302 0 0 0 0 0 0 0 0 0 0 0 0 0 0 0 0;
#X obj 66 380 list append;
#X obj 66 405 t a b;
#X obj 66 131 euclidean-grid.UI.set-sequence-for-row;
#X obj 66 66 inlet;
#X obj 66 97 route \$2, f 10;
#X obj 153 168 v row-\$2-length;
#X obj 98 539 array set \$1;
#X obj 138 439 i \$2;
#X obj 66 156 t a a;
#X obj 66 622 list trim;
#X obj 66 597 list prepend 0 \$2;
#X obj 108 251 t b f;
#X obj 140 330 list split;
#X obj 138 469 * 16;
#X obj 66 733 s monome.out;
#X obj 66 442 t a a;
#X obj 66 708 vanilla-monome.IO.address-message monome grid led level
row;
#X connect 0 0 1 0;
#X connect 1 0 14 0;
#X connect 2 0 15 0;
#X connect 3 0 4 0;
#X connect 4 0 18 0;
#X connect 4 1 10 0;
#X connect 5 0 11 0;
#X connect 5 1 8 0;
#X connect 6 0 7 0;
#X connect 7 0 5 0;
#X connect 10 0 16 0;
#X connect 11 0 3 0;
#X connect 11 1 0 0;
#X connect 12 0 19 0;
#X connect 13 0 12 0;
#X connect 14 0 2 0;
#X connect 14 1 15 1;
#X connect 15 0 3 1;
#X connect 15 2 3 1;
#X connect 16 0 9 1;
#X connect 18 0 13 0;
#X connect 18 1 9 0;
#X connect 19 0 17 0;
