#N canvas 407 233 1440 720 12;
#X declare -path ../../;
#X obj 141 342 euclidean-grid, f 50;
#X obj 141 311 count;
#X obj 227 286 r reset;
#X obj 155 125 s clock;
#X obj 155 77 tgl 15 0 empty empty empty 17 7 0 10 -262144 -1 -1 1
1;
#X obj 214 10 keyup;
#X obj 214 35 sel 32;
#X obj 214 60 s reset;
#X obj 141 284 r clock;
#X obj 191 713 noteout;
#X obj 486 98 declare -path ../../;
#X obj 177 675 makenote;
#X obj 144 425 sel 1;
#X obj 194 424 sel 1;
#X obj 248 428 sel 1;
#X obj 298 427 sel 1;
#X obj 355 430 sel 1;
#X obj 405 429 sel 1;
#X obj 453 427 sel 1;
#X obj 503 426 sel 1;
#X obj 194 449 i 60;
#X obj 248 453 i 62;
#X obj 298 452 i 64;
#X obj 355 455 i 69;
#X obj 405 454 i 72;
#X obj 453 452 i 74;
#X obj 503 451 i 76;
#X obj 179 624 unpack 72 100 1000;
#X obj 173 595 pack 72 100 100;
#X obj 155 100 metro 200;
#X obj 144 450 i 58;
#X text 47 99 press space;
#X text 388 266 on your monome grids hold 3 keys in a row to set euclidean
sequence for row;
#X connect 0 0 12 0;
#X connect 0 1 13 0;
#X connect 0 2 14 0;
#X connect 0 3 15 0;
#X connect 0 4 16 0;
#X connect 0 5 17 0;
#X connect 0 6 18 0;
#X connect 0 7 19 0;
#X connect 1 0 0 0;
#X connect 2 0 1 1;
#X connect 4 0 29 0;
#X connect 5 0 6 0;
#X connect 6 0 4 0;
#X connect 6 0 7 0;
#X connect 8 0 1 0;
#X connect 11 0 9 0;
#X connect 11 1 9 1;
#X connect 12 0 30 0;
#X connect 13 0 20 0;
#X connect 14 0 21 0;
#X connect 15 0 22 0;
#X connect 16 0 23 0;
#X connect 17 0 24 0;
#X connect 18 0 25 0;
#X connect 19 0 26 0;
#X connect 20 0 28 0;
#X connect 21 0 28 0;
#X connect 22 0 28 0;
#X connect 23 0 28 0;
#X connect 24 0 28 0;
#X connect 25 0 28 0;
#X connect 26 0 28 0;
#X connect 27 0 11 0;
#X connect 27 1 11 1;
#X connect 27 2 11 2;
#X connect 28 0 27 0;
#X connect 29 0 3 0;
#X connect 30 0 28 0;
